<?xml version="1.0" encoding="utf-8"?>
<!-- Generator: Adobe Illustrator 22.1.0, SVG Export Plug-In . SVG Version: 6.00 Build 0)  -->
<svg version="1.1" baseProfile="basic" id="Layer_1"
	 xmlns="http://www.w3.org/2000/svg" xmlns:xlink="http://www.w3.org/1999/xlink" x="0px" y="0px" width="90px" height="90px"
	 viewBox="0 0 90 90" xml:space="preserve">
<path fill="#FCCC86" d="M56.261,66.431c-1.47-2.563-3.696-5.233-7.968-4.5l-12.684,2.297c-4.405,0.36-7.489-3.472-11.775-3.092
	l-7.873,0.699l2.234,25.177l8.675-0.77c6.011-0.533,11.616,4.215,17.193,3.72c6.093-0.532,22.329-11.095,39.189-21.613
	c1.094-0.682,1.495-2.124,0.829-3.228c-3.434-5.7-8.861-7.436-13.304-5.439L56.261,66.431z"/>
<path fill="#EFAA65" d="M39.218,74.325c3.074-0.254,6.209-0.949,9.303-1.896c3.098-0.949,6.164-2.148,9.187-3.473l-0.131,0.484
	l-1.317-3.008l1.932,2.655c0.102,0.14,0.071,0.337-0.069,0.439l-0.061,0.045c-2.685,1.954-5.462,3.815-8.409,5.479
	c-2.947,1.659-6.069,3.129-9.454,4.179l-0.028,0.009c-1.327,0.411-2.737-0.331-3.149-1.659c-0.411-1.327,0.331-2.737,1.659-3.149
	C38.855,74.375,39.043,74.341,39.218,74.325z"/>
<path fill="#3886C6" d="M18.526,90H7.936c-1.293,0-2.341-1.048-2.341-2.341V58.905c0-1.293,1.048-2.341,2.341-2.341h10.59
	c1.293,0,2.341,1.048,2.341,2.341v28.753C20.867,88.952,19.819,90,18.526,90z"/>
<circle fill="#FFC843" cx="52.055" cy="26.458" r="26.458"/>
<circle fill="#D38700" cx="52.055" cy="26.458" r="20.578"/>
<path fill="#FFC843" d="M55.241,24.346c-0.13-0.027-0.265-0.041-0.404-0.041h-5.563c-0.436,0-0.804-0.368-0.804-0.804v-4.316
	c0-0.436,0.368-0.804,0.804-0.804h5.563c0.436,0,0.804,0.368,0.804,0.804c0,1.104,0.896,2,2,2s2-0.896,2-2
	c0-2.649-2.155-4.804-4.804-4.804h-0.781v-1.473c0-1.104-0.896-2-2-2s-2,0.896-2,2v1.473h-0.782c-2.648,0-4.804,2.155-4.804,4.804
	v4.316c0,2.511,1.943,4.554,4.4,4.763c0.13,0.027,0.265,0.041,0.404,0.041h5.563c0.436,0,0.804,0.368,0.804,0.804v4.316
	c0,0.436-0.368,0.804-0.804,0.804h-5.563c-0.436,0-0.804-0.368-0.804-0.804c0-1.104-0.896-2-2-2s-2,0.896-2,2
	c0,2.649,2.155,4.804,4.804,4.804h0.782v1.779c0,1.104,0.896,2,2,2s2-0.896,2-2v-1.779h0.781c2.648,0,4.804-2.155,4.804-4.804
	v-4.316C59.641,26.598,57.698,24.555,55.241,24.346z"/>
<g>
</g>
<g>
</g>
<g>
</g>
<g>
</g>
<g>
</g>
<g>
</g>
</svg>
